# xmcd
#
# Track frame offsets:
#	150
#	19031
#	44498
#	59576
#	71144
#	86381
#	100346
#	116808
#	125770
#	135101
#	147664
#	159552
#	174522
#	188168
#	204445
#	216015
#
# Disc length: 3077 seconds
#
# Revision: 0
# Processed by: cddbd v1.5.2PL0 Copyright (c) Steve Scherf et al.
# Submitted via: audiograbber 1.83.01
#
DISCID=ee0c0310
DTITLE=циыта цяиба - ека ма акканоуле йаядиес CD2
DYEAR=2015
DGENRE=дглотийа
TTITLE0=пеияа тоу гкиоу тис калпес
TTITLE1=циойа л' циати де ваияесаи
TTITLE2=ема йкымаяи екато
TTITLE3=с' аутес тис яавес (цеяотсекицйас)
TTITLE4=поукиа лоу сас паяайакы
TTITLE5=амхисе йаи паки г алуцдакиа
TTITLE6=апоье г поукиа лакыме
TTITLE7=о тавудяолос
TTITLE8=окес ои беяцес
TTITLE9=окес ои миес памтяеуомтаи
TTITLE10=циа паяе ле циа паяе ле - сглеяа циыяцг пасвакиа
TTITLE11=то пяасимо ламтгки - басикийос луяифеи еды
TTITLE12=йож' тгм екемг тгм екиа
TTITLE13=г йакомувтиа - тг вяусг лоу тгм паяеа
TTITLE14=жеццаяи циати вахгйес
TTITLE15=ема йаяаби акаяцеуе
EXTD=
EXTT0=
EXTT1=
EXTT2=
EXTT3=
EXTT4=
EXTT5=
EXTT6=
EXTT7=
EXTT8=
EXTT9=
EXTT10=
EXTT11=
EXTT12=
EXTT13=
EXTT14=
EXTT15=
PLAYORDER=
